<svg version="1.1" id="lyric" xmlns="http://www.w3.org/2000/svg" xmlns:xlink="http://www.w3.org/1999/xlink" x="0px" y="0px"
	 viewBox="0 0 512 512" style="enable-background:new 0 0 512 512;" xml:space="preserve">
<path d="M199,89.1H52c-6.6,0-12,5.8-12,13s5.4,13,12,13h147c6.6,0,12-5.8,12-13S205.6,89.1,199,89.1z"/>
<path d="M199,150.1H52c-6.6,0-12,5.8-12,13s5.4,13,12,13h147c6.6,0,12-5.8,12-13S205.6,150.1,199,150.1z"/>
<path d="M199,211.1H52c-6.6,0-12,5.8-12,13s5.4,13,12,13h147c6.6,0,12-5.8,12-13S205.6,211.1,199,211.1z"/>
<path d="M286,32.1c0,0,3-16,16-16s23,19,26,25s19,31,27,38c10,8,36,24,42,31c8,6,28,28,30,30s44,41,43,89s-37,113-59,112
	c-14,0-16-20-16-20s38.5-47.5,0-104.5c-30-39-73.5-59-73.5-59v234c0,0,1,104-106,104c-17.4,0-31.9-4.3-43.7-10.8
	c-5.3-2.9-34.4-20.3-40.3-55.2c-4.5-26.3,6.9-46.8,11-54c9.3-16.1,21.3-24.9,27.2-29.1c25.8-18.4,53.4-20,65.8-19.9c0,0,42-2,50,16
	L286,32.1z"/>
</svg>
