<svg id="lyric" xmlns="http://www.w3.org/2000/svg" viewBox="0 0 430.02 479.5"><title>lyric</title><path d="M224,89H77c-6.63,0-12,5.82-12,13s5.37,13,12,13H224c6.63,0,12-5.82,12-13S230.63,89,224,89Z" transform="translate(-65 -16)"/><path d="M224,150H77c-6.63,0-12,5.82-12,13s5.37,13,12,13H224c6.63,0,12-5.82,12-13S230.63,150,224,150Z" transform="translate(-65 -16)"/><path d="M224,211H77c-6.63,0-12,5.82-12,13s5.37,13,12,13H224c6.63,0,12-5.82,12-13S230.63,211,224,211Z" transform="translate(-65 -16)"/><path d="M311,32s3-16,16-16,23,19,26,25,19,31,27,38c10,8,36,24,42,31,8,6,28,28,30,30s44,41,43,89-37,113-59,112c-14,0-16-20-16-20s38.5-47.5,0-104.5c-30-39-73.5-59-73.5-59v234s1,104-106,104c-17.45,0-31.92-4.29-43.66-10.76-5.25-2.9-34.38-20.26-40.34-55.24-4.49-26.33,6.87-46.81,11-54a90.53,90.53,0,0,1,27.18-29.14c25.75-18.4,53.39-20,65.82-19.86,0,0,42-2,50,16Z" transform="translate(-65 -16)"/></svg>